<mxfile host="app.diagrams.net" modified="2024-05-22T09:42:04.151Z" agent="Mozilla/5.0 (Windows NT 10.0; Win64; x64) AppleWebKit/537.36 (KHTML, like Gecko) Chrome/124.0.0.0 Safari/537.36" version="24.4.4" etag="pD4QE3jq2Eflzc_0mJkn" type="github">
  <diagram name="Страница — 1" id="3o8BIkZY-qxdtgB7jMEO">
    <mxGraphModel>
      <root>
        <mxCell id="0" />
        <mxCell id="1" parent="0" />
      </root>
    </mxGraphModel>
  </diagram>
</mxfile>
